<?xml version="1.0" standalone="no"?>
<!DOCTYPE svg PUBLIC "-//W3C//DTD SVG 20010904//EN"
 "http://www.w3.org/TR/2001/REC-SVG-20010904/DTD/svg10.dtd">
<svg version="1.0" xmlns="http://www.w3.org/2000/svg"
 width="274.000000pt" height="274.000000pt" viewBox="0 0 274.000000 274.000000"
 preserveAspectRatio="xMidYMid meet">
<metadata>
Created by potrace 1.14, written by Peter Selinger 2001-2017
</metadata>
<g transform="translate(0.000000,274.000000) scale(0.100000,-0.100000)"
fill="#000000" stroke="none">
<path d="M5 2631 c-3 -5 0 -13 6 -17 7 -4 9 -3 5 4 -3 5 0 13 6 15 9 4 10 6 1
6 -6 1 -14 -3 -18 -8z"/>
<path d="M1237 2528 c-10 -13 -15 -17 -11 -9 5 9 3 12 -4 7 -7 -4 -12 -14 -12
-23 0 -13 -2 -14 -17 -2 -15 12 -16 12 -11 -3 4 -10 1 -19 -8 -22 -24 -9 -31
-7 -14 4 8 5 11 10 5 10 -5 -1 -19 -7 -29 -15 -15 -11 -23 -12 -33 -3 -8 6
-13 7 -12 2 4 -20 -2 -26 -15 -15 -12 10 -17 8 -26 -9 -10 -18 -14 -19 -28 -8
-12 10 -14 10 -8 1 4 -8 2 -13 -7 -13 -7 0 -24 -11 -37 -25 -12 -13 -27 -22
-31 -19 -5 3 -9 0 -9 -5 0 -15 13 -14 30 2 12 10 12 9 1 -5 -10 -14 -9 -18 6
-27 10 -6 12 -11 6 -11 -19 0 -28 4 -26 13 2 4 -2 7 -8 7 -6 0 -9 -9 -6 -20 4
-16 2 -18 -12 -11 -12 7 -24 4 -41 -10 l-25 -20 25 11 c24 11 24 10 5 -5 -11
-8 -26 -13 -33 -10 -10 3 -12 0 -8 -10 3 -8 0 -14 -7 -12 -7 1 -12 -8 -11 -20
0 -12 -3 -20 -7 -17 -25 15 -43 -176 -30 -311 4 -37 -18 -134 -37 -163 -7 -10
-15 -10 -43 2 -30 12 -95 22 -109 16 -3 -1 -17 -3 -31 -4 -14 0 -34 -8 -44
-16 -11 -8 -16 -10 -11 -3 5 9 2 11 -8 7 -9 -3 -13 -11 -9 -18 4 -7 1 -6 -9 2
-13 10 -20 7 -42 -23 -15 -20 -32 -32 -38 -29 -6 4 -8 2 -4 -4 3 -6 1 -16 -6
-24 -15 -16 -16 -19 -35 -113 -8 -38 -13 -95 -12 -125 3 -90 0 -117 -11 -100
-9 13 -11 13 -20 0 -29 -43 -44 -168 -28 -222 12 -40 38 -72 38 -47 0 12 2 12
9 0 5 -8 7 -20 5 -26 -5 -11 41 -57 64 -67 5 -1 19 -35 31 -75 12 -40 24 -79
27 -86 4 -12 -2 -13 -38 -5 -76 18 -168 -21 -215 -91 -29 -44 -29 -54 2 -49
26 5 35 -7 13 -15 -12 -4 23 -23 90 -48 12 -5 22 -13 22 -19 0 -5 8 -10 18
-10 9 0 40 -12 67 -25 28 -14 57 -25 65 -25 9 0 22 -6 29 -13 6 -6 15 -12 19
-13 4 0 20 -6 35 -12 16 -7 34 -12 42 -12 8 0 16 -4 19 -9 3 -4 26 -14 50 -21
29 -8 43 -17 40 -25 -3 -7 4 -16 15 -20 12 -3 21 -11 21 -16 0 -6 5 -7 10 -4
5 3 10 2 10 -2 0 -11 56 -35 101 -43 28 -5 36 -3 32 7 -3 7 0 13 6 13 6 0 11
-5 11 -11 0 -6 5 -7 12 -2 19 11 39 13 32 2 -8 -13 10 -11 25 4 7 6 12 8 11 2
-5 -22 1 -29 10 -15 8 13 10 12 10 -4 0 -20 0 -20 15 0 15 18 15 18 8 0 -4
-14 -3 -17 6 -12 19 12 61 14 61 3 0 -5 8 -3 17 4 13 11 15 11 9 1 -10 -16 25
-13 36 3 5 6 8 3 8 -6 0 -9 7 -16 15 -16 8 0 12 4 10 8 -3 4 2 10 11 13 8 3
13 2 10 -3 -3 -5 1 -12 10 -15 8 -3 13 -2 10 3 -3 5 1 11 9 15 8 3 17 1 20 -3
2 -5 14 -11 26 -14 16 -4 19 -2 14 11 -5 14 -4 14 13 -1 21 -19 32 -22 32 -6
0 5 -5 7 -12 3 -7 -5 -8 -3 -4 5 6 9 13 8 29 -6 12 -10 17 -12 12 -4 -6 11 -4
13 11 7 22 -9 23 -9 49 -7 17 1 18 3 5 11 -13 8 -11 11 8 16 12 4 22 11 22 16
0 5 4 7 9 4 5 -4 11 -1 13 6 3 8 25 12 66 11 l62 -2 38 52 c21 29 41 60 45 70
3 9 11 17 16 17 6 0 8 -6 5 -14 -3 -8 -1 -16 4 -20 10 -6 9 24 -1 41 -4 6 -3
14 3 18 5 3 10 1 10 -4 0 -17 40 -13 46 4 4 8 10 13 14 10 5 -3 11 -1 15 5 4
6 11 8 16 5 5 -4 9 -1 9 4 0 6 7 11 16 11 11 0 14 5 10 16 -6 15 -4 15 11 3 9
-8 14 -9 10 -3 -4 7 0 15 9 18 9 3 14 13 11 20 -4 10 0 14 13 11 13 -3 17 1
13 11 -3 9 0 14 8 12 10 -2 13 6 12 27 -2 22 0 26 7 15 9 -13 14 -7 11 13 0 4
4 7 10 7 5 0 7 5 4 10 -3 6 0 10 7 10 11 0 10 2 0 9 -11 7 -11 9 2 14 9 4 16
11 16 17 0 6 -6 8 -12 5 -7 -4 -6 -1 3 7 21 18 31 48 16 49 -7 0 -1 5 13 11
16 6 20 12 12 15 -10 4 -8 9 5 20 10 8 12 11 4 7 -10 -5 -12 -3 -7 5 5 7 14
10 20 8 7 -3 13 0 13 6 0 7 3 23 7 36 6 18 5 22 -5 17 -8 -4 -6 -1 4 7 13 10
15 17 7 22 -8 5 -4 12 10 22 21 15 21 16 3 36 -16 19 -16 20 0 8 12 -10 17
-10 17 -2 0 7 4 9 10 6 6 -3 7 1 4 9 -3 9 -1 16 5 16 6 0 11 6 11 14 0 8 5 18
12 22 7 5 8 3 3 -5 -5 -9 -1 -9 14 1 12 7 21 18 21 25 0 7 7 13 15 13 7 0 19
8 25 18 11 16 11 16 6 -1 -7 -23 6 -22 22 3 6 11 18 17 26 14 22 -9 39 41 22
66 -6 8 -7 12 -2 8 11 -9 43 24 38 42 -2 9 8 28 22 43 27 29 34 43 16 32 -6
-3 -7 1 -4 9 3 9 10 16 15 16 5 0 9 9 9 20 0 11 7 23 15 26 8 4 12 10 9 15 -3
5 1 9 8 9 9 0 9 3 -2 10 -13 9 -13 10 0 10 13 0 13 1 0 10 -12 8 -12 10 3 16
9 3 17 10 17 16 0 5 -4 7 -9 3 -5 -3 -13 0 -17 6 -4 8 -3 9 4 5 11 -6 15 5 11
30 0 4 5 11 13 15 10 7 8 9 -6 9 -20 0 -20 0 0 15 11 8 14 15 7 15 -7 0 -13 7
-13 15 0 8 -5 15 -11 15 -5 0 -8 4 -5 9 3 5 -1 12 -10 15 -10 4 -13 2 -8 -7 5
-8 2 -7 -9 2 -13 10 -14 17 -6 27 8 10 5 12 -16 8 -16 -3 -24 -1 -20 5 3 6 -6
13 -20 17 -15 4 -22 11 -18 18 4 6 -1 5 -10 -3 -16 -12 -22 -8 -18 12 1 5 -4
5 -10 2 -15 -10 -60 15 -52 28 4 6 0 8 -10 4 -16 -6 -22 3 -18 26 1 5 -3 6 -9
2 -5 -3 -10 -1 -10 4 0 6 -7 11 -16 11 -9 0 -13 5 -9 13 4 6 0 4 -8 -6 -15
-18 -15 -18 -21 1 -4 11 -14 26 -24 33 -14 11 -15 11 -4 -1 16 -19 16 -35 -1
-21 -8 6 -16 8 -20 5 -7 -7 -67 27 -67 39 0 4 -4 5 -10 2 -5 -3 -10 -1 -10 4
0 6 -3 10 -7 9 -5 -2 -42 12 -83 30 l-76 33 -11 80 c-7 54 -20 100 -42 141
-29 57 -30 62 -15 79 22 24 11 51 -19 47 -17 -2 -40 12 -80 48 -31 28 -76 63
-100 77 -65 39 -185 76 -263 82 -64 6 -70 4 -87 -17z m-217 -125 c0 -3 -7 -2
-16 1 -11 4 -15 2 -11 -8 4 -10 1 -13 -9 -9 -11 4 -12 9 -4 19 10 11 40 9 40
-3z m-90 -97 c0 -2 -7 -7 -16 -10 -8 -3 -12 -2 -9 4 6 10 25 14 25 6z m1405
-1086 c-3 -5 -12 -10 -18 -10 -7 0 -6 4 3 10 19 12 23 12 15 0z"/>
<path d="M2277 1789 c7 -7 15 -10 18 -7 3 3 -2 9 -12 12 -14 6 -15 5 -6 -5z"/>
<path d="M160 1470 c-8 -5 -12 -12 -9 -15 4 -3 12 1 19 10 14 17 11 19 -10 5z"/>
<path d="M2385 1329 c-4 -6 -5 -12 -2 -15 2 -3 7 2 10 11 7 17 1 20 -8 4z"/>
<path d="M170 1086 c0 -9 5 -16 10 -16 6 0 10 4 10 9 0 6 -4 13 -10 16 -5 3
-10 -1 -10 -9z"/>
<path d="M117 803 c-11 -10 -8 -41 4 -49 6 -3 18 1 27 9 13 13 13 19 2 31 -14
17 -23 20 -33 9z"/>
<path d="M2717 253 c-2 -5 -3 -16 -2 -26 2 -9 -1 -15 -6 -11 -5 3 -9 0 -9 -6
0 -6 -4 -9 -9 -5 -5 3 -13 0 -17 -6 -4 -8 -3 -9 4 -5 7 4 12 2 12 -3 0 -6 -7
-11 -15 -11 -9 0 -12 -6 -8 -17 4 -11 3 -14 -5 -9 -7 4 -12 1 -12 -9 0 -8 -7
-18 -15 -21 -8 -4 -12 -11 -8 -17 4 -6 0 -8 -11 -4 -10 4 -15 3 -11 -3 3 -6
35 -10 71 -10 l65 0 -2 80 c-2 73 -10 104 -22 83z"/>
</g>
</svg>
